<svg height="64" viewBox="0 0 63.999995 64" width="64" xmlns="http://www.w3.org/2000/svg"><path d="m88 1.3c-46.3 0-83.7 37.5-83.7 83.7 0 46.3 37.5 83.7 83.7 83.7 46.3 0 83.7-37.5 83.7-83.7s-37.5-83.7-83.7-83.7zm38.4 120.8c-1.5 2.5-4.7 3.2-7.2 1.7-19.7-12-44.4-14.7-73.6-8.1-2.8.6-5.6-1.1-6.2-3.9s1.1-5.6 3.9-6.2c31.9-7.3 59.3-4.2 81.3 9.3 2.5 1.5 3.3 4.7 1.8 7.2zm10.2-22.8c-1.9 3.1-5.9 4-9 2.2-22.5-13.8-56.8-17.8-83.4-9.8-3.5 1-7.1-.9-8.1-4.3-1-3.5.9-7.1 4.4-8.1 30.4-9.2 68.2-4.8 94.1 11.1 3 1.8 3.9 5.8 2 8.9zm.9-23.8c-27-16-71.5-17.5-97.3-9.7-4.1 1.3-8.5-1.1-9.8-5.2s1.1-8.5 5.2-9.8c29.6-9 78.8-7.2 109.8 11.2 3.7 2.2 4.9 7 2.7 10.7-2 3.8-6.9 5-10.6 2.8z" fill="#1ed760" transform="matrix(.3823178 0 0 .3823178 -1.643966 -.497013)"/></svg>